<svg xmlns="http://www.w3.org/2000/svg" viewBox="0 0 256 256">
  <rect width="256" height="256" rx="60" fill="#00B36B"/>
  <path d="M128,40 C176.6,40 216,79.4 216,128 C216,176.6 176.6,216 128,216 C79.4,216 40,176.6 40,128 C40,79.4 79.4,40 128,40 Z M128,72 C101.4,72 80,93.4 80,120 C80,146.6 101.4,168 128,168 C154.6,168 176,146.6 176,120 C176,93.4 154.6,72 128,72 Z" fill="#FFFFFF"/>
  <path d="M128 40C176.6 40 216 79.4 216 128H176C176 101.5 154.5 80 128 80V40ZM40 128C40 79.4 79.4 40 128 40V80C101.5 80 80 101.5 80 128H40Z" fill="#E6F7F0" opacity="0.8"/>
  <path d="M128 216C79.4 216 40 176.6 40 128H80C80 154.5 101.5 176 128 176V216ZM216 128C216 176.6 176.6 216 128 216V176C154.5 176 176 154.5 176 128H216Z" fill="#007A4A" opacity="0.6"/>
  <path d="M148.5 107.5C148.5 118.8 139.3 128 128 128C116.7 128 107.5 118.8 107.5 107.5C107.5 96.2 116.7 87 128 87C139.3 87 148.5 96.2 148.5 107.5Z" fill="#FFFFFF"/>
  <path d="M148.5 148.5C148.5 159.8 139.3 169 128 169C116.7 169 107.5 159.8 107.5 148.5C107.5 137.2 116.7 128 128 128C139.3 128 148.5 137.2 148.5 148.5Z" fill="#FFFFFF"/>
</svg>
